<svg width="128" height="128" viewBox="0 0 128 128" fill="none" xmlns="http://www.w3.org/2000/svg">
    <rect x="4" y="4" width="120" height="120" rx="28" fill="url(#paint0_linear)" />
    
    <rect x="20" y="20" width="88" height="68" rx="8" fill="#2E3440" />
    
    <rect x="24" y="24" width="80" height="60" rx="6" fill="url(#paint1_linear)" />
    
    <path d="M82.5 54L52.5 71.3205V36.6795L82.5 54Z" fill="white"/>
    
    <path d="M54 88H74V96C74 98.2091 72.2091 100 70 100H58C55.7909 100 54 98.2091 54 96V88Z" fill="#2E3440"/>
    <path d="M44 100H84C86.2091 100 88 101.791 88 104V104C88 106.209 86.2091 108 84 108H44C41.7909 108 40 106.209 40 104V104C40 101.791 41.7909 100 44 100Z" fill="#3B4252"/>

    <defs>
        <linearGradient id="paint0_linear" x1="4" y1="4" x2="124" y2="124" gradientUnits="userSpaceOnUse">
            <stop stop-color="#5E81AC"/>
            <stop offset="1" stop-color="#81A1C1"/>
        </linearGradient>
        <linearGradient id="paint1_linear" x1="64" y1="24" x2="64" y2="84" gradientUnits="userSpaceOnUse">
            <stop stop-color="#88C0D0"/>
            <stop offset="1" stop-color="#8FBCBB"/>
        </linearGradient>
    </defs>
</svg>